<svg xmlns="http://www.w3.org/2000/svg" xmlns:xlink="http://www.w3.org/1999/xlink" viewBox="0 0 392.86 104.61"><defs><style>.cls-1{fill:url(#Degradado_sin_nombre_4);}.cls-2{fill:url(#Degradado_sin_nombre_16);}.cls-3{fill:url(#Degradado_sin_nombre_11);}.cls-4{fill:url(#Degradado_sin_nombre_5);}.cls-5{fill:url(#Degradado_sin_nombre_5-2);}.cls-6{fill:url(#Degradado_sin_nombre_5-3);}.cls-7{fill:url(#Degradado_sin_nombre_5-4);}.cls-8{fill:url(#Degradado_sin_nombre_5-5);}.cls-9{fill:url(#Degradado_sin_nombre_5-6);}.cls-10{fill:url(#Degradado_sin_nombre_5-7);}.cls-11{fill:url(#Degradado_sin_nombre_5-8);}.cls-12{fill:url(#Degradado_sin_nombre_5-9);}.cls-13{fill:url(#Degradado_sin_nombre_5-10);}.cls-14{fill:url(#Degradado_sin_nombre_5-11);}.cls-15{fill:url(#Degradado_sin_nombre_5-12);}.cls-16{fill:url(#Degradado_sin_nombre_5-13);}.cls-17{fill:url(#Degradado_sin_nombre_5-14);}.cls-18{fill:url(#Degradado_sin_nombre_5-15);}.cls-19{fill:url(#Degradado_sin_nombre_5-16);}.cls-20{fill:url(#Degradado_sin_nombre_5-17);}</style><linearGradient id="Degradado_sin_nombre_4" x1="55.45" y1="7.44" x2="55.45" y2="93.77" gradientUnits="userSpaceOnUse"><stop offset="0.04" stop-color="#e7be3c"/><stop offset="0.45" stop-color="#e6bc3c"/><stop offset="0.67" stop-color="#e3b43e"/><stop offset="0.84" stop-color="#dea640"/><stop offset="0.99" stop-color="#d79343"/><stop offset="1" stop-color="#d79243"/></linearGradient><linearGradient id="Degradado_sin_nombre_16" x1="35.82" y1="30.77" x2="33.8" y2="23.9" gradientUnits="userSpaceOnUse"><stop offset="0.04" stop-color="#e7be3c"/><stop offset="0.27" stop-color="#e6bb3d"/><stop offset="0.47" stop-color="#e2b03e"/><stop offset="0.65" stop-color="#dc9f41"/><stop offset="0.75" stop-color="#d79243"/></linearGradient><linearGradient id="Degradado_sin_nombre_11" x1="47.52" x2="47.52" y2="95.6" gradientUnits="userSpaceOnUse"><stop offset="0" stop-color="#649ac5"/><stop offset="0.21" stop-color="#5e96c0"/><stop offset="0.48" stop-color="#4f89b3"/><stop offset="0.78" stop-color="#35749d"/><stop offset="1" stop-color="#1d6189"/></linearGradient><linearGradient id="Degradado_sin_nombre_5" x1="137.02" y1="1.78" x2="137.02" y2="40.4" gradientUnits="userSpaceOnUse"><stop offset="0" stop-color="#164187"/><stop offset="1" stop-color="#01224d"/></linearGradient><linearGradient id="Degradado_sin_nombre_5-2" x1="178.79" y1="11.1" x2="178.79" y2="41.13" xlink:href="#Degradado_sin_nombre_5"/><linearGradient id="Degradado_sin_nombre_5-3" x1="220.2" y1="11.1" x2="220.2" y2="40.4" xlink:href="#Degradado_sin_nombre_5"/><linearGradient id="Degradado_sin_nombre_5-4" x1="261.03" y1="11.1" x2="261.03" y2="41.13" xlink:href="#Degradado_sin_nombre_5"/><linearGradient id="Degradado_sin_nombre_5-5" x1="293.47" y1="11.1" x2="293.47" y2="40.4" xlink:href="#Degradado_sin_nombre_5"/><linearGradient id="Degradado_sin_nombre_5-6" x1="326.74" y1="0.08" x2="326.74" y2="40.4" xlink:href="#Degradado_sin_nombre_5"/><linearGradient id="Degradado_sin_nombre_5-7" x1="347.06" y1="11.1" x2="347.06" y2="40.4" xlink:href="#Degradado_sin_nombre_5"/><linearGradient id="Degradado_sin_nombre_5-8" x1="132.98" y1="54.57" x2="132.98" y2="95.13" xlink:href="#Degradado_sin_nombre_5"/><linearGradient id="Degradado_sin_nombre_5-9" x1="170.89" y1="64.86" x2="170.89" y2="94.89" xlink:href="#Degradado_sin_nombre_5"/><linearGradient id="Degradado_sin_nombre_5-10" x1="205.89" y1="64.86" x2="205.89" y2="104.61" xlink:href="#Degradado_sin_nombre_5"/><linearGradient id="Degradado_sin_nombre_5-11" x1="239.38" y1="64.86" x2="239.38" y2="94.89" xlink:href="#Degradado_sin_nombre_5"/><linearGradient id="Degradado_sin_nombre_5-12" x1="265.18" y1="64.86" x2="265.18" y2="94.16" xlink:href="#Degradado_sin_nombre_5"/><linearGradient id="Degradado_sin_nombre_5-13" x1="286.37" y1="64.86" x2="286.37" y2="94.16" xlink:href="#Degradado_sin_nombre_5"/><linearGradient id="Degradado_sin_nombre_5-14" x1="306.37" y1="53.84" x2="306.37" y2="94.16" xlink:href="#Degradado_sin_nombre_5"/><linearGradient id="Degradado_sin_nombre_5-15" x1="327.43" y1="64.86" x2="327.43" y2="94.89" xlink:href="#Degradado_sin_nombre_5"/><linearGradient id="Degradado_sin_nombre_5-16" x1="359.43" y1="65.6" x2="359.43" y2="94.89" xlink:href="#Degradado_sin_nombre_5"/><linearGradient id="Degradado_sin_nombre_5-17" x1="384.32" y1="64.86" x2="384.32" y2="94.89" xlink:href="#Degradado_sin_nombre_5"/></defs><title>Recurso 1</title><g id="Capa_2" data-name="Capa 2"><g id="Capa_1-2" data-name="Capa 1"><path class="cls-1" d="M34.88,55a4.65,4.65,0,0,1-3-1.92c-.75-1.24.14-2.26,1.44-2.38a2.93,2.93,0,0,1-2.56-2,2.35,2.35,0,0,1,.89-2.08c.4-.45.85-.88,1.22-1.35a1.47,1.47,0,0,0-.42-2.21c-1-.78-1.94-1.52-2.87-2.33-1.09-1-.41-1.82.38-2.61l5.82-5.81a6.21,6.21,0,0,0,.75-.79c.9-1.24.54-2.47.33-3.84a18.61,18.61,0,0,1,5-15.76,19.25,19.25,0,0,1,3.43-2.8,9.22,9.22,0,0,1,4.37-1.73,18,18,0,0,0,6.27,29.67c2,.75,4.12.93,6.14,1.59a28.69,28.69,0,0,1-1.65,55.07A17,17,0,0,0,48.14,62.05c-1.32.45-2.47,1.16-3.75,1.7-2.36,1-6.31,2.22-8.29-.17-.89-1.09-.85-2.55-.93-3.88C35.08,58.14,35,56.57,34.88,55Z"/><path class="cls-2" d="M37.35,30.32a7.3,7.3,0,0,1-2.14-.73,6.82,6.82,0,0,1-1.75-1.3,5.33,5.33,0,0,1-1.17-1.75,6.58,6.58,0,0,1-.47-2,6.15,6.15,0,0,0,.91,1.72,4.55,4.55,0,0,0,1.36,1.23,5.7,5.7,0,0,0,1.65.66,5.59,5.59,0,0,0,1.69.14Z"/><path class="cls-3" d="M95,40.31A43.67,43.67,0,0,0,26.53,16a43.68,43.68,0,0,0-1.8,68.55c9.09,7.58,21.79,11.7,33.57,9.59l2.11-.38a24.79,24.79,0,0,1-6.94,1.49,49.3,49.3,0,0,1-7.49.3A47.9,47.9,0,1,1,95,40.31Z"/><path class="cls-4" d="M113.71,1.78h4l7.88,27.83L136.63,1.78h.8l10.95,27.83,8-27.83h3.93L149.24,40.4h-.72L137.06,11.18,125.38,40.4h-.72Z"/><path class="cls-5" d="M178.8,11.1a14.13,14.13,0,0,1,10.94,4.78,14.85,14.85,0,0,1,3.95,10.32,14.87,14.87,0,0,1-4.17,10.46,15.11,15.11,0,0,1-21.46,0,14.87,14.87,0,0,1-4.17-10.46,14.81,14.81,0,0,1,4-10.29A14.1,14.1,0,0,1,178.8,11.1Zm0,3.6a10.63,10.63,0,0,0-7.88,3.38,11.35,11.35,0,0,0-3.29,8.19,11.64,11.64,0,0,0,1.5,5.78,10.61,10.61,0,0,0,4.06,4.13,11.51,11.51,0,0,0,11.22,0,10.68,10.68,0,0,0,4.06-4.13,11.64,11.64,0,0,0,1.5-5.78,11.28,11.28,0,0,0-3.31-8.19A10.62,10.62,0,0,0,178.79,14.7Z"/><path class="cls-6" d="M240.45,16.77a8.82,8.82,0,0,0-3.36-4.17,9.24,9.24,0,0,0-5.22-1.5A10.77,10.77,0,0,0,226,12.85a11.65,11.65,0,0,0-2.78,2.44A15.42,15.42,0,0,0,221.36,18a11.74,11.74,0,0,0-2-3.88,8.74,8.74,0,0,0-3-2.17,9.87,9.87,0,0,0-4-.81,11.18,11.18,0,0,0-5.86,1.68,14.23,14.23,0,0,0-3.94,4V11.84h-3.68V40.4h3.68V28.29a22.14,22.14,0,0,1,1.06-7.94,9.13,9.13,0,0,1,3.29-4.14,8.14,8.14,0,0,1,4.76-1.54,6.56,6.56,0,0,1,3.81,1.12,5.83,5.83,0,0,1,2.24,3,24.83,24.83,0,0,1,.65,7V40.4H222V29.22c0-4.1.34-7,1-8.78a9.3,9.3,0,0,1,1.25-2.28,9,9,0,0,1,2-1.92,8.3,8.3,0,0,1,4.88-1.57,6.66,6.66,0,0,1,3.78,1.05,5.6,5.6,0,0,1,2.23,2.77,20.24,20.24,0,0,1,.66,6.32V40.4h3.75V24.81A22.19,22.19,0,0,0,240.45,16.77Z"/><path class="cls-7" d="M271.73,30.92l3.1,1.63a17.14,17.14,0,0,1-3.52,4.83,13.92,13.92,0,0,1-4.49,2.79,15.68,15.68,0,0,1-5.65,1q-7,0-10.93-4.58a15.63,15.63,0,0,1-.61-20A13.64,13.64,0,0,1,261,11.1a14.09,14.09,0,0,1,11.66,5.54,15.42,15.42,0,0,1,3.15,9.77h-25.7a11.66,11.66,0,0,0,3.18,8.15,10.13,10.13,0,0,0,7.6,3.19A12.41,12.41,0,0,0,265.1,37a11.17,11.17,0,0,0,3.5-2A16.68,16.68,0,0,0,271.73,30.92Zm0-7.69a12.13,12.13,0,0,0-2.14-4.7,10.11,10.11,0,0,0-3.72-2.83A11.34,11.34,0,0,0,261,14.62a10.48,10.48,0,0,0-7.23,2.7,12.31,12.31,0,0,0-3.34,5.91Z"/><path class="cls-8" d="M281,11.84h3.68V17a15.3,15.3,0,0,1,4.88-4.4,12,12,0,0,1,5.83-1.46,10.08,10.08,0,0,1,5.68,1.63,9.67,9.67,0,0,1,3.66,4.38q1.18,2.76,1.18,8.59V40.4h-3.67V26.77a33.82,33.82,0,0,0-.41-6.59,7.22,7.22,0,0,0-2.45-4.26,7.37,7.37,0,0,0-4.73-1.43,9.06,9.06,0,0,0-6,2.2,10.33,10.33,0,0,0-3.48,5.46,38.11,38.11,0,0,0-.52,7.77V40.4H281Z"/><path class="cls-9" d="M326.73.08a2.88,2.88,0,0,1,2.14.89,2.9,2.9,0,0,1,.89,2.15,2.9,2.9,0,0,1-.89,2.13,3,3,0,0,1-4.26,0,2.93,2.93,0,0,1-.88-2.13A2.93,2.93,0,0,1,324.61,1,2.88,2.88,0,0,1,326.73.08Zm-1.82,11.76h3.67V40.4h-3.67Z"/><path class="cls-10" d="M334.61,11.84h3.67V17a15.33,15.33,0,0,1,4.89-4.4A12,12,0,0,1,349,11.1a10.11,10.11,0,0,1,5.69,1.63,9.73,9.73,0,0,1,3.66,4.38q1.19,2.76,1.18,8.59V40.4h-3.68V26.77a34.09,34.09,0,0,0-.4-6.59A7.27,7.27,0,0,0,353,15.92a7.39,7.39,0,0,0-4.73-1.43,9,9,0,0,0-6,2.2,10.33,10.33,0,0,0-3.48,5.46,37.9,37.9,0,0,0-.53,7.77V40.4h-3.67Z"/><path class="cls-11" d="M151.85,62.71l-3,2.34a16.68,16.68,0,0,0-6.05-5A17.71,17.71,0,0,0,135,58.38a17.16,17.16,0,0,0-8.56,2.22,15.89,15.89,0,0,0-6.1,6A16.49,16.49,0,0,0,118.17,75,15.8,15.8,0,0,0,123,86.76a16.78,16.78,0,0,0,12.22,4.72,17.2,17.2,0,0,0,13.57-6.35l3,2.31a19.4,19.4,0,0,1-7.2,5.68,22.61,22.61,0,0,1-9.65,2q-10.12,0-16-6.75a20.34,20.34,0,0,1-4.9-13.75,19.15,19.15,0,0,1,5.94-14.27A20.51,20.51,0,0,1,135,54.57a21.92,21.92,0,0,1,9.76,2.14A18.94,18.94,0,0,1,151.85,62.71Z"/><path class="cls-12" d="M170.9,64.86a14.16,14.16,0,0,1,10.94,4.78,15.36,15.36,0,0,1-.22,20.78,15.11,15.11,0,0,1-21.46,0,15.3,15.3,0,0,1-.23-20.75A14.14,14.14,0,0,1,170.9,64.86Zm0,3.6A10.61,10.61,0,0,0,163,71.85,11.27,11.27,0,0,0,159.72,80a11.61,11.61,0,0,0,1.5,5.77,10.54,10.54,0,0,0,4.06,4.13,11.51,11.51,0,0,0,11.22,0,10.68,10.68,0,0,0,4.06-4.13,11.61,11.61,0,0,0,1.5-5.77,11.25,11.25,0,0,0-3.31-8.19A10.59,10.59,0,0,0,170.89,68.46Z"/><path class="cls-13" d="M191,65.6h3.68v5.25a14.7,14.7,0,0,1,5-4.49,13.25,13.25,0,0,1,6.32-1.5,14.1,14.1,0,0,1,10.41,4.39,14.49,14.49,0,0,1,4.32,10.55,14.78,14.78,0,0,1-4.28,10.7,14.48,14.48,0,0,1-16.62,3,16,16,0,0,1-5.16-4.23v15.36H191Zm14.7,2.81a10.78,10.78,0,0,0-8,3.33A11.34,11.34,0,0,0,194.44,80a11.75,11.75,0,0,0,1.45,5.85A10.7,10.7,0,0,0,200.05,90a11.59,11.59,0,0,0,5.73,1.52A10.72,10.72,0,0,0,211.34,90a11.23,11.23,0,0,0,4.15-4.28A11.65,11.65,0,0,0,217,79.92a11.53,11.53,0,0,0-1.54-5.77,11,11,0,0,0-9.78-5.74Z"/><path class="cls-14" d="M250.07,84.68l3.1,1.63a16.94,16.94,0,0,1-3.52,4.83,13.92,13.92,0,0,1-4.49,2.79,15.68,15.68,0,0,1-5.65,1q-7,0-10.93-4.58a15.66,15.66,0,0,1-.61-20,13.68,13.68,0,0,1,11.33-5.41A14.08,14.08,0,0,1,251,70.4a15.48,15.48,0,0,1,3.16,9.77h-25.7a11.62,11.62,0,0,0,3.18,8.15,10.11,10.11,0,0,0,7.59,3.19,12.37,12.37,0,0,0,4.25-.76,11.34,11.34,0,0,0,3.51-2A16.94,16.94,0,0,0,250.07,84.68Zm0-7.69a12.13,12.13,0,0,0-2.14-4.7,10,10,0,0,0-3.72-2.83,11.34,11.34,0,0,0-4.86-1.08,10.5,10.5,0,0,0-7.23,2.7A12.27,12.27,0,0,0,228.79,77Z"/><path class="cls-15" d="M258,65.6h3.76v4.17a13.37,13.37,0,0,1,3.54-3.69,7,7,0,0,1,3.89-1.22,6.76,6.76,0,0,1,3.25,1l-1.91,3.1a5.17,5.17,0,0,0-1.95-.5A5.35,5.35,0,0,0,265,69.94a9.59,9.59,0,0,0-2.6,4.69q-.67,2.45-.68,9.87v9.66H258Z"/><path class="cls-16" d="M273.91,65.6h3.68v5.12a15.4,15.4,0,0,1,4.88-4.4,12,12,0,0,1,5.83-1.46A10.16,10.16,0,0,1,294,66.49a9.66,9.66,0,0,1,3.66,4.38q1.19,2.76,1.19,8.59v14.7h-3.68V80.53a33.63,33.63,0,0,0-.41-6.58,7.2,7.2,0,0,0-2.45-4.27,7.42,7.42,0,0,0-4.72-1.43,9.07,9.07,0,0,0-6,2.2,10.33,10.33,0,0,0-3.48,5.46,38.11,38.11,0,0,0-.52,7.77V94.16h-3.68Z"/><path class="cls-17" d="M306.36,53.84A3,3,0,0,1,308.5,59a3,3,0,0,1-4.26-4.28A2.88,2.88,0,0,1,306.36,53.84ZM304.54,65.6h3.67V94.16h-3.67Z"/><path class="cls-18" d="M342,71.53,339,73.34a12.2,12.2,0,0,0-10.3-5,12,12,0,0,0-8.67,3.35,11,11,0,0,0-3.44,8.16,11.52,11.52,0,0,0,1.58,5.87A11.18,11.18,0,0,0,322.56,90a12.75,12.75,0,0,0,6.21,1.52,12.51,12.51,0,0,0,10.27-5L342,88.41a13.81,13.81,0,0,1-5.5,4.78,17.46,17.46,0,0,1-7.86,1.7,15.54,15.54,0,0,1-11.24-4.3,14,14,0,0,1-4.46-10.48,14.87,14.87,0,0,1,2.09-7.7,14.7,14.7,0,0,1,5.73-5.55,16.72,16.72,0,0,1,8.16-2,17.41,17.41,0,0,1,5.48.87A15.11,15.11,0,0,1,338.83,68,12.21,12.21,0,0,1,342,71.53Z"/><path class="cls-19" d="M346.93,65.6h3.68V78.93a28.52,28.52,0,0,0,.52,6.72,7.47,7.47,0,0,0,3,4.15,9.08,9.08,0,0,0,5.29,1.52,8.94,8.94,0,0,0,5.22-1.48,7.63,7.63,0,0,0,3-3.9,27.47,27.47,0,0,0,.55-7V65.6h3.75v14c0,3.93-.45,6.9-1.37,8.89a10.57,10.57,0,0,1-4.15,4.69,15.16,15.16,0,0,1-13.91,0,10.4,10.4,0,0,1-4.18-4.73q-1.38-3-1.38-9.12Z"/><path class="cls-20" d="M392.83,68.72l-2.36,2.44c-2-1.9-3.89-2.86-5.76-2.86a4.38,4.38,0,0,0-3.07,1.18,3.66,3.66,0,0,0-1.27,2.76,4.08,4.08,0,0,0,1.05,2.65,14.74,14.74,0,0,0,4.42,3A16.56,16.56,0,0,1,391.41,82a7.44,7.44,0,0,1,1.45,4.49,8,8,0,0,1-2.47,6,8.44,8.44,0,0,1-6.18,2.44,10.9,10.9,0,0,1-4.72-1.07,10.26,10.26,0,0,1-3.72-3l2.31-2.62q2.82,3.17,6,3.17A5.38,5.38,0,0,0,387.82,90a4.37,4.37,0,0,0,1.55-3.33,4.24,4.24,0,0,0-1-2.81,16.33,16.33,0,0,0-4.63-3,14.87,14.87,0,0,1-5.26-3.94,7.42,7.42,0,0,1-1.39-4.44,7.19,7.19,0,0,1,2.22-5.4,7.72,7.72,0,0,1,5.61-2.16Q388.84,64.86,392.83,68.72Z"/></g></g></svg>